# xmcd CD database file
#
# Track frame offsets:
#	150
#	14660
#	33570
#	48595
#
# Disc length: 830 seconds
#
# Revision: 2
# Processed by: cddbd v1.4PL0 Copyright (c) Steve Scherf et al.
# Submitted via: CDex 1.40Release
#
DISCID=31033c04
DTITLE=Miles - Perfect World
DYEAR=2000
DGENRE=Unknown
TTITLE0=Perfect World
TTITLE1=Perfect World (Erobique and Rocko Schamoni Disco Mix)
TTITLE2=Perfect World (Additional Mix)
TTITLE3=Pretty Day (Live at SXSW)
EXTD=YEAR: 2000
EXTT0=
EXTT1=
EXTT2=
EXTT3=
PLAYORDER=
